# xmcd CD database file generated by Grip 2.92
# 
# Track frame offsets:
#       150
#       9160
#       21682
#       32327
#       45092
#       55242
#       66757
#       77632
#       90220
#       102815
#       111712
#       120967
#       134195
#       147037
#       157212
#       167840
#       178000
#       189077
#       201497
#       212507
#       228455
#       238800
#       256915
#       268100
# 
# Disc length: 3737 seconds
# 
# Revision: 4
# Processed by: cddbd v1.4PL0 Copyright (c) Steve Scherf et al.
# Submitted via: Gronk 1.4
# 
DISCID=490e9718
DTITLE=Johnny Paycheck - The Real Mr. Heartache
DYEAR=1900
DGENRE=country
TTITLE0=Don't Start Countin' On Me
TTITLE1=The Girl They Talk About
TTITLE2=A-11
TTITLE3=The Real Mr. Heartache
TTITLE4=I'm Barely Hangin' On To Me
TTITLE5=The Lovin' Machine
TTITLE6=He's In A Hurry (To Get Home To My Wife)
TTITLE7=The Ballad Of Frisco Bay
TTITLE8=Wherever You Are
TTITLE9=Big Town Baby
TTITLE10=Hang On Sally
TTITLE11=(Pardon Me) I've Got Someone To Kill
TTITLE12=(It's A Mighty Thin Line) Between Love And Hate
TTITLE13=Apartment #9
TTITLE14=The Late And Great Me
TTITLE15=Motel Time Again
TTITLE16=Jukebox Charlie
TTITLE17=Touch My Heart
TTITLE18=My Baby Don't Love Me Anymore
TTITLE19=The Cave
TTITLE20=Don't Monkey With Another Monkey's Monkey
TTITLE21=(Like Me) You'll Recover In Time
TTITLE22=It Won't Be Long (And I'll Be Hating You)
TTITLE23=If I'm Gonna Sink (I Might As Well Go To The Bottom)
EXTD=
EXTT0=
EXTT1=
EXTT2=
EXTT3=
EXTT4=
EXTT5=
EXTT6=
EXTT7=
EXTT8=
EXTT9=
EXTT10=
EXTT11=
EXTT12=
EXTT13=
EXTT14=
EXTT15=
EXTT16=
EXTT17=
EXTT18=
EXTT19=
EXTT20=
EXTT21=
EXTT22=
EXTT23=
PLAYORDER=
